<mxfile host="drawio-plugin" modified="2022-04-17T14:40:43.064Z" agent="5.0 (Macintosh; Intel Mac OS X 12_3_1) AppleWebKit/537.36 (KHTML, like Gecko) Chrome/89.0.4389.114 Safari/537.36" version="15.5.4" etag="E_6M9gNQu2vTg4cjUb7k" type="embed"><diagram id="ExdccTZqctQwAvQB16s_" name="Page-1"><mxGraphModel dx="2045" dy="1570" grid="1" gridSize="10" guides="1" tooltips="1" connect="1" arrows="1" fold="1" page="1" pageScale="1" pageWidth="827" pageHeight="1169" background="none" math="0" shadow="0"><root><mxCell id="0"/><mxCell id="1" parent="0"/><mxCell id="38" value="" style="rounded=0;whiteSpace=wrap;html=1;fillColor=#bac8d3;strokeColor=#23445d;opacity=40;" vertex="1" parent="1"><mxGeometry x="-240" width="880" height="520" as="geometry"/></mxCell><mxCell id="2M91R3iAnrZrVvDSjcHK-1" value="Node" style="rounded=0;whiteSpace=wrap;html=1;fontSize=14;" parent="1" vertex="1"><mxGeometry x="440" y="241" width="160" height="41" as="geometry"/></mxCell><mxCell id="2M91R3iAnrZrVvDSjcHK-2" value="Bootstrap node" style="rounded=0;whiteSpace=wrap;html=1;fontSize=14;" parent="1" vertex="1"><mxGeometry x="120" y="241" width="160" height="39" as="geometry"/></mxCell><mxCell id="2M91R3iAnrZrVvDSjcHK-4" value="Node" style="rounded=0;whiteSpace=wrap;html=1;fontSize=14;" parent="1" vertex="1"><mxGeometry x="120" y="40" width="160" height="40" as="geometry"/></mxCell><mxCell id="32" value="Node" style="rounded=0;whiteSpace=wrap;html=1;fontSize=14;" parent="1" vertex="1"><mxGeometry x="120" y="440" width="160" height="41" as="geometry"/></mxCell><mxCell id="33" value="Node" style="rounded=0;whiteSpace=wrap;html=1;fontSize=14;" parent="1" vertex="1"><mxGeometry x="-200" y="239" width="160" height="41" as="geometry"/></mxCell><mxCell id="34" value="" style="endArrow=classic;startArrow=classic;html=1;dashed=1;entryX=0;entryY=0.5;entryDx=0;entryDy=0;exitX=1;exitY=0.5;exitDx=0;exitDy=0;" parent="1" source="2M91R3iAnrZrVvDSjcHK-2" target="2M91R3iAnrZrVvDSjcHK-1" edge="1"><mxGeometry width="50" height="50" relative="1" as="geometry"><mxPoint x="390" y="190" as="sourcePoint"/><mxPoint x="440" y="140" as="targetPoint"/></mxGeometry></mxCell><mxCell id="35" value="" style="endArrow=classic;startArrow=classic;html=1;dashed=1;entryX=0.5;entryY=1;entryDx=0;entryDy=0;exitX=0.5;exitY=0;exitDx=0;exitDy=0;" parent="1" source="2M91R3iAnrZrVvDSjcHK-2" target="2M91R3iAnrZrVvDSjcHK-4" edge="1"><mxGeometry width="50" height="50" relative="1" as="geometry"><mxPoint x="290" y="270.5" as="sourcePoint"/><mxPoint x="450" y="271.5" as="targetPoint"/></mxGeometry></mxCell><mxCell id="36" value="" style="endArrow=classic;startArrow=classic;html=1;dashed=1;entryX=1;entryY=0.5;entryDx=0;entryDy=0;exitX=0;exitY=0.5;exitDx=0;exitDy=0;" parent="1" source="2M91R3iAnrZrVvDSjcHK-2" target="33" edge="1"><mxGeometry width="50" height="50" relative="1" as="geometry"><mxPoint x="210" y="251" as="sourcePoint"/><mxPoint x="210" y="90" as="targetPoint"/></mxGeometry></mxCell><mxCell id="37" value="" style="endArrow=classic;startArrow=classic;html=1;dashed=1;entryX=0.5;entryY=0;entryDx=0;entryDy=0;exitX=0.5;exitY=1;exitDx=0;exitDy=0;" parent="1" source="2M91R3iAnrZrVvDSjcHK-2" target="32" edge="1"><mxGeometry width="50" height="50" relative="1" as="geometry"><mxPoint x="130" y="270.5" as="sourcePoint"/><mxPoint x="-30" y="269.5" as="targetPoint"/></mxGeometry></mxCell></root></mxGraphModel></diagram></mxfile>